<?xml version="1.0" encoding="iso-8859-1"?>
<!-- Generator: Adobe Illustrator 16.0.0, SVG Export Plug-In . SVG Version: 6.00 Build 0)  -->
<!DOCTYPE svg PUBLIC "-//W3C//DTD SVG 1.1//EN" "http://www.w3.org/Graphics/SVG/1.1/DTD/svg11.dtd">
<svg version="1.1" id="Capa_1" xmlns="http://www.w3.org/2000/svg" xmlns:xlink="http://www.w3.org/1999/xlink" x="0px" y="0px"
	 width="473.805px" height="473.805px" viewBox="0 0 473.805 473.805" style="enable-background:new 0 0 473.805 473.805;"
	 xml:space="preserve">
<g>
	<g>
		<path fill="#fff" d="M103.007,148.388l-71.996-22.386c-12.603-3.93-26,3.107-29.931,15.73c-3.911,12.604,3.127,26.01,15.74,29.921
			l81.31,25.283c2.314,0.727,4.705,1.081,7.096,1.081c3.758,0,7.497-0.89,10.901-2.63l45.221-23.17l22.51,77.771
			c-2.438,0.832-4.781,1.951-6.942,3.414l-45.125,30.801c-12.766,8.712-16.333,25.972-8.071,39.034l45.776,72.312l-50.873,7.774
			c-37.131,5.671-62.596,23.495-56.83,39.79c5.738,16.294,40.517,25.044,77.667,19.507l262.701-39.015
			c37.149-5.527,69.165-24.595,71.508-42.601c2.343-17.997-25.856-27.99-62.998-22.319l-49.342,7.545l-51.848-102.128
			c-0.316-0.611-0.708-1.186-1.062-1.778l-27.923-110.438l64.106-7.038c5.432-0.593,10.51-3.041,14.354-6.933l63.237-63.744
			c9.304-9.371,9.247-24.508-0.134-33.803c-9.362-9.304-24.499-9.247-33.804,0.134l-57.289,57.738l-64.681,7.105
			c-1.683,0.182-3.299,0.555-4.839,1.052l-107.989,18.58c-3.318,0.153-6.636,0.947-9.772,2.563L103.007,148.388z M201.932,305.796
			h64.346l35.324,69.567l-70.208,10.729l-44.389-70.122L201.932,305.796z"/>
		<circle fill="#fff" cx="194.721" cy="57.344" r="47.822"/>
	</g>
</g>
<g>
</g>
<g>
</g>
<g>
</g>
<g>
</g>
<g>
</g>
<g>
</g>
<g>
</g>
<g>
</g>
<g>
</g>
<g>
</g>
<g>
</g>
<g>
</g>
<g>
</g>
<g>
</g>
<g>
</g>
</svg>
