<?xml version="1.0" encoding="iso-8859-1"?>
<!-- Generator: Adobe Illustrator 19.0.0, SVG Export Plug-In . SVG Version: 6.00 Build 0)  -->
<svg version="1.1" id="Layer_1" xmlns="http://www.w3.org/2000/svg" xmlns:xlink="http://www.w3.org/1999/xlink" x="0px" y="0px"
	 viewBox="0 0 512.001 512.001" style="enable-background:new 0 0 512.001 512.001;" xml:space="preserve">
<g>
	<g>
		<path fill="#fff" d="M490.216,152.51c-41-92.646-132.932-152.51-234.209-152.51c-47.973,0-94.739,13.349-135.242,38.602
			c-30.75,19.165-57.648,45.232-77.785,75.384C14.862,156.07,0,205.179,0,256.006c0,31.945,5.81,63.098,17.266,92.592
			c21.418,55.208,61.72,101.63,113.481,130.715C168.793,500.698,212.107,512,256.005,512c48.422,0,95.567-13.586,136.339-39.289
			c39.665-25.006,71.711-60.346,92.676-102.196c17.903-35.728,26.98-74.253,26.98-114.51
			C512,220.004,504.671,185.183,490.216,152.51z M256.006,15.862c85.542,0,163.971,45.533,206.822,118.044
			c-23.572-13.009-47.849-21.834-72.464-26.295c-27.02-4.897-54.522-4.59-81.743,0.913c-36.279,7.333-62.998,21.966-75.773,30.094
			c-28.935-50.07-71.055-80.451-92.032-93.367C175.996,25.989,215.539,15.862,256.006,15.862z M125.322,54.524
			c15.496,8.629,66.723,40.454,97.786,99.235c16.333,30.876,24.728,64.75,24.961,100.704c-2.911,6.518-20.801,40.554-84.603,63.122
			c-0.998-38.302-6.69-72.536-16.987-101.872c-9.121-25.99-21.848-48.246-37.826-66.152c-17.987-20.158-36.028-30.249-46.758-34.923
			C79.144,91.031,100.854,70.439,125.322,54.524z M15.862,256.006c0-45.594,12.754-89.704,36.927-127.988
			c8.116,3.155,25.936,11.822,44.032,32.102c40.26,45.12,50.078,112.12,50.897,162.495c-33.347,9.617-72.85,14.698-117.578,15.137
			C20.662,311.613,15.862,284.141,15.862,256.006z M36.503,353.525c46.264-0.901,87.118-6.748,121.557-17.437
			c70.75-21.978,95.746-58.277,102.946-72.012c13.654,0.737,55.018,5.199,107.232,31.701c-4.144,12.591-17.374,47.717-45.549,82.381
			c-20.389,25.085-44.54,45.055-71.782,59.356c-33.503,17.588-71.911,26.63-114.201,26.927
			C92.372,439.017,57.177,399.982,36.503,353.525z M383.885,459.294c-38.235,24.104-82.456,36.845-127.88,36.845
			c-30.908,0-61.5-5.97-89.927-17.428c33.602-3.481,64.637-12.622,92.563-27.344c29.191-15.389,55.018-36.825,76.766-63.712
			c27.956-34.563,41.755-68.817,47.027-84.245c30.005,16.975,58.782,38.858,85.718,65.184
			C448.482,405.593,419.452,436.871,383.885,459.294z M475.459,353.596c-29.4-28.123-60.91-51.224-93.807-68.723
			c-55.739-29.646-100.294-35.454-117.838-36.555c-1.033-33.868-8.906-65.979-23.461-95.649
			c10.913-7.026,36.555-21.552,71.411-28.598c56.625-11.446,112.07,0.984,164.827,36.918c12.96,30.043,19.548,61.994,19.548,95.018
			C496.138,290.114,489.172,322.885,475.459,353.596z"/>
	</g>
</g>
<g>
</g>
<g>
</g>
<g>
</g>
<g>
</g>
<g>
</g>
<g>
</g>
<g>
</g>
<g>
</g>
<g>
</g>
<g>
</g>
<g>
</g>
<g>
</g>
<g>
</g>
<g>
</g>
<g>
</g>
</svg>
