<?xml version="1.0" encoding="UTF-8"?>
<svg height="293.55" viewBox="0,0,566.971,293.554" width="566.97" xmlns="http://www.w3.org/2000/svg" xmlns:xlink="http://www.w3.org/1999/xlink">
 <linearGradient id="a" gradientUnits="userSpaceOnUse" x1="1697.57" x2="1703.04" y1="-861.42" y2="-672.33">
  <stop offset="0" stop-color="#00618e"/>
  <stop offset=".5" stop-color="#007fa9"/>
  <stop offset="1" stop-color="#009ec5"/>
 </linearGradient>
 <linearGradient id="b" gradientUnits="userSpaceOnUse" x1="45.79" x2="55.22" y1="-227.64" y2="-78.4">
  <stop offset="0" stop-color="#00618e"/>
  <stop offset="1" stop-color="#009ec5"/>
 </linearGradient>
 <metadata/>
 <g transform="matrix(.29522 0 0 .29294 -13.24 321.07)">
  <path d="m911.138-558.034c-52.5279-3.562-95.5717-10.5445-122.068-19.8015-10.0872-3.52426-11.1203-4.4107-13.7198-11.7723-2.161-6.11963-2.5201-6.54673-6.5-7.73197-27.62-8.22531-127.241-67.7336-133.553-79.7771-.7577-1.44594 1.833-4.63693 14.4214-17.7626l15.3451-16 5.2867 5.13576c47.0702 45.7263 159.775 80.0133 269.787 82.0746 106.041 1.98694 179.335-20.4502 193.993-59.3862 2.8622-7.60267 4.3656-17.428 3.7335-24.3992-2.0082-22.1466-28.136-41.4246-70.9732-52.3665-30.2702-7.73188-73.8868-12.5586-113.487-12.5586h-16.2671v-29h19.5114l65.9772-66h-99.2864c-108.152 0-107.774-.0179-119.788 5.67084-6.7089 3.17653-13.6514 9.20287-15.7874 13.704-.8945 1.88508-1.6264 5.50997-1.6264 8.05531v4.6279l-13.25-.27902-13.25-.27903-.5246-73.5h39.5514l13.9732-14 13.9732-14h271.527v18.9773l80.5.5227.2727 16 .2726 16-14.2726.066c-20.6403.0954-41.2732 4.78854-50.9152 11.5811-4.3795 3.0852-65.5423 64.8529-64.2178 64.8529 4.7627 0 25.4185 2.62495 36.3603 4.62069 33.6094 6.13022 80.6181 20.5858 101.932 31.3447 8.7455 4.41475 21.3743 14.3654 27.744 21.8605 24.6093 28.9574 30.5469 58.8138 17.8768 89.8911-9.6608 23.6962-31.0807 45.2979-58.1929 58.687-48.291 23.8479-112.53 39.5086-182.859 44.5787-12.4612.89833-69.8363 1.15376-81.5.36283z" fill="url(#a)"/>
  <path d="m936.138-408.403c-21.6816-.73597-34.0318-1.71078-35.6091-2.81066-.5252-.36623-2.5205-5.81937-4.434-12.1181l-3.4791-11.4522-16.4889-1.80492c-67.6108-7.40083-151.385-28.3337-217.989-54.4696-21.2151-8.32494-43.7404-19.42-48.9865-24.1288l-4.1136-3.69221 43.9847-43.8676 10.8077 5.08583c45.1782 21.2597 120.546 38.8165 196.308 45.7298 42.3224 3.86194 100.703 4.94245 139.5 2.58188 87.9683-5.35241 170.539-21.9226 246.316-49.4308 134.413-48.7934 207.259-119.179 203.888-197.002-.8716-20.1215-4.9468-34.6411-15.3238-54.5969-7.7396-14.8838-17.0362-27.4774-30.8809-41.8329-34.4532-35.7242-84.8204-65.5082-146.5-86.6308-64.8454-22.2067-140.083-34.5534-235.5-38.6463-29.8409-1.28-112.634-.6629-143.5 1.0697-72.7745 4.0849-125.145 8.921-158 14.5905-109.458 18.8882-197.89 69.6976-250.742 144.066-18.6196 26.1994-32.4761 57.4357-33.9484 76.5288l-.6058 7.85555h-123.39l-14.5535-36.75-14.5536-36.75 93.1484-1 9.0846-14.5c26.1137-41.6807 61.2727-79.5605 103.245-111.235 59.5121-44.9106 138.741-82.1254 214.047-100.541 11.4578-2.8018 15.2359-4.1088 15.25-5.2752.01-.8529-.8608-5.5758-1.9358-10.4954-1.0751-4.9196-1.6376-9.2343-1.25-9.5884.865-.7902 40.7212-7.8027 67.2046-11.8243 127.223-19.3192 245.178-22.9597 356.5-11.0028 180.231 19.3583 338.82 85.4442 434.393 181.018 27.7046 27.7046 44.7504 51.9492 53.4285 75.9924 8.5842 23.783 19.232 37.5547 34.6787 44.8529l5.5 2.59863 109.5.56517v40.6414l-7.6509.64673c-4.208.35571-30.8949.64674-59.3042.64674h-51.6533l-4.4919 2.84868c-7.1401 4.52808-10.3867 9.53627-14.7423 22.7409-20.1355 61.0442-61.5084 116.495-119.93 160.738-110.554 83.7231-292.199 133.896-509.228 140.655-33.8221 1.05338-36.7902 1.05311-68-.006z" fill="url(#a)"/>
  <g fill="url(#b)">
   <path d="m1310.49-180.354c-10.1341-2.16455-18.6631-8.82006-19.9254-15.5484-1.0159-5.41527.1994-8.21703 4.8392-11.1562 11.0276-6.98571 27.5788-9.85815 39.9811-6.93865 7.2071 1.69655 17.5206 6.43145 19.6823 9.03612 1.0675 1.28625 3.624 1.5816 13.6901 1.5816h12.3775v13h-11.5086c-11.2095 0-11.6166.0783-15.6648 3.01074-6.4686 4.68579-15.6356 7.1261-28.3265 7.54072-6.05.19765-12.8652-.039-15.1449-.52597z"/>
   <path d="m889.138-116.38v-4h-54v-14.8525l14.4671-.3237c11.4827-.257 14.7894-.6467 16.0294-1.8889 1.3826-1.38512 1.5598-8.57228 1.541-62.5l-.021-60.9349-2.5639-2.25c-2.4491-2.14936-3.3441-2.25-20.008-2.25h-17.4443v-14h87v9h53v16l-9.25.0564c-10.7915.0659-15.2601 1.36182-18.1563 5.26566-2.0479 2.76042-2.1001 3.89208-2.3882 51.7825l-.2946 48.9604 69.7945-.31408c75.7336-.34079 74.6512-.26128 80.2882-5.89829 1.6538-1.65382 2.9876-4.33339 3.3807-6.79199l.6493-4.06057h15.9764v44h-22.7837l-10.0102 9h-185.206z"/>
   <path d="m704.826-115.19c-.8271-4.1358-4.2241-5.1891-16.7348-5.1891h-10.953v-13.9002l11.1656-.5998-52.6656-50.3958-67.0564-.1042-23.2218 23.2988c-12.772 12.8143-23.2218 23.7493-23.2218 24.3 0 2.8743 2.7418 3.4012 17.7 3.4012h15.3v13.8746l-32.25.3127c-33.9991.3297-35.8135.5695-39.6953 5.2468-1.132 1.364-5.6035 1.5659-34.6771 1.5659h-33.3776v-20h23.7453l67.7153-63h20.0972l6.4298-6.48744 6.4297-6.48744 69.7998-.52512-13.2898-11c-7.3094-6.05-13.9295-11.3858-14.7114-11.8573-1.005-.60605-2.6479.34629-5.6066 3.25l-4.185 4.10726h-33.8993l14.975-15c13.6004-13.6231 15.2962-15 18.4746-15 3.1608 0 4.8255-1.32347 17.2-13.6743 12.4308-12.407 13.862-13.5423 15.4427-12.25.9582.78335 38.4168 34.1618 83.2413 74.1743l81.4991 72.75h36.6423v13.961l-43.5.539-.3104 3.75-.3103 3.75h-55.6293z"/>
   <path d="m109.138-109.38v-3h-49v-14h26v-64.8651c0-64.2651-.019-64.8897-2.0883-67.52-3.7123-4.71947-6.8-5.61488-19.362-5.61488h-11.5497v-14h91v71h154v-25.393c0-28.9032-.8156-26.607 9.4508-26.607 18.6565 0 43.9948 7.90361 52.822 16.4764l3.7272 3.61987v105.904h20v13h-20v7h-45v-7h-22v-64h-132v23.8257c0 23.4244.038 23.8613 2.253 25.9422 5.5349 5.1999 19.2771 9.2072 31.6329 9.2245l5.386.01-.636 4.6396c-.3497 2.5517-.6359 5.4767-.6359 6.5 0 1.6737-.8878 1.8604-8.845 1.8604-7.2989 0-9.1343.3197-10.5 1.8287-.9102 1.0058-1.655 2.3558-1.655 3 0 .8737-9.2753 1.1713-36.5 1.1713h-36.5v-3z"/>
   <path d="m1774.14-105.483c-23.1074-1.5078-51.0896-5.9494-60.04-9.53-2.2392-.8957-3.9259-2.4382-4.5899-4.1974-.8827-2.3385-2.503-3.3012-10.1764-6.046-17.1848-6.1471-61.9301-29.6521-64.5658-33.9166-.3365-.54445 3.0438-4.10298 7.5118-7.90785l8.1236-6.91794 8.1184 5.46514c40.7996 27.4657 130.224 41.2102 195.606 30.0646 29.3697-5.00656 46.348-15.3287 48.4681-29.4668.9193-6.13045-.7513-10.5747-5.633-14.985-12.5226-11.3134-40.5618-17.9022-81.5731-19.1685l-19.25-.59436v-12.6963l4.75-.0107c4.6621-.0105 5.0712-.28352 22.1025-14.75l17.3525-14.7393-54.3525-.26145c-47.8689-.23026-54.97-.0676-59.529 1.36378-6.0187 1.88962-11.3235 6.58208-11.3235 10.0163 0 2.28166-.293 2.38134-7 2.38134h-7v-34h21.2323l13.5354-12h145.232v8h43v15h-6.912c-8.2627 0-20.7185 2.24044-25.1253 4.5193-1.7465.90315-10.6375 8.01828-19.7578 15.8114l-16.5824 14.1693 7.4387.84541c20.6775 2.34997 55.5648 10.9877 67.6237 16.7428 8.3707 3.99497 18.0838 13.1538 22.4091 21.1305 3.12 5.75387 3.4049 6.99494 3.3927 14.7813-.011 7.32496-.413 9.31879-2.9045 14.423-3.4541 7.07632-12.8054 16.6662-20.9591 21.4939-3.174 1.8792-9.9002 4.9778-14.947 6.8857-39.9827 15.1148-90.9577 21.5346-143.676 18.0944z"/>
   <path d="m1318.45-102.073-7.1865-.3914-1.141-3.4574c-.9037-2.7383-1.6703-3.4575-3.6852-3.4575-15.7515 0-69.1991-13.3948-80.2406-20.1095-3.2264-1.9621-3.2485-2.0252-1.4188-4.0531 1.0222-1.1331 3.9067-3.7771 6.41-5.87562l4.5514-3.81555 8.0093 2.83427c25.4042 8.9898 66.8564 13.5737 100.388 11.1012 58.5323-4.3161 108.871-23.1397 125.149-46.7978 9.7821-14.2178 7.5832-30.7502-5.8703-44.1367-22.2663-22.1553-62.6631-34.0846-121.278-35.814-31.6595-.93407-78.3291 2.05091-96.5443 6.17495-15.9333 3.60746-34.222 11.1758-45.4558 18.8107-12.6486 8.59657-26.5096 25.5872-29.091 35.6593l-1.2871 5.02182-37.1219-.0226-4.1849-9.7387-4.185-9.7387 14.1613-.27884c11.2498-.22151 14.3316-.58295 14.9892-1.75802.4553-.81356 3.5622-4.87828 6.9043-9.03272 17.2065-21.389 49.172-40.0172 84.0127-48.9593 10.668-2.73799 10.6961-2.75325 10.1455-5.50596-.4831-2.41552-.1954-2.83151 2.3025-3.32995 29.8153-5.9494 82.5058-9.07802 113.354-6.73069 35.153 2.67486 64.7446 9.05397 91.1574 19.651 31.7557 12.7406 57.1692 31.8146 66.5471 49.9466 7.0719 13.6733 8.8088 14.4979 30.5388 14.4979h14.7566v11h-18.3776c-15.5479 0-18.5799.24387-19.692 1.58382-.7229.8711-3.4043 5.9336-5.9585 11.25s-6.9747 12.5912-9.8232 16.1662c-24.484 30.7282-75.9622 51.1614-144.649 57.4154-17.4511 1.589-44.8171 2.5099-56.1865 1.8909z"/>
  </g>
 </g>
</svg>
